<?xml version="1.0" encoding="utf-8"?>
<!-- Generator: Adobe Illustrator 27.5.0, SVG Export Plug-In . SVG Version: 6.00 Build 0)  -->
<svg version="1.1" xmlns="http://www.w3.org/2000/svg" xmlns:xlink="http://www.w3.org/1999/xlink" x="0px" y="0px"
	 viewBox="0 0 1000 1000" style="enable-background:new 0 0 1000 1000;" xml:space="preserve">
<g id="background">
	<!-- Background removed for transparency -->
</g>
<g id="object">
	<g>
		<g>
			
				<ellipse transform="matrix(0.7071 -0.7071 0.7071 0.7071 -319.2573 558.8007)" style="fill:#911C2D;" cx="514.903" cy="664.778" rx="54.57" ry="54.57"/>
			
				<linearGradient id="SVGID_1_" gradientUnits="userSpaceOnUse" x1="8749.6787" y1="5868.1973" x2="8864.9453" y2="5868.1973" gradientTransform="matrix(-0.9351 -0.3545 0.3545 -0.9351 6670.3457 9274.3223)">
				<stop  offset="0" style="stop-color:#A57D24"/>
				<stop  offset="0.2112" style="stop-color:#D8BE62"/>
				<stop  offset="0.328" style="stop-color:#F1DD80"/>
				<stop  offset="0.524" style="stop-color:#FBF2A8"/>
				<stop  offset="0.7298" style="stop-color:#F1DD80"/>
				<stop  offset="1" style="stop-color:#A57D24"/>
			</linearGradient>
			<path style="fill:url(#SVGID_1_);" d="M535.332,610.885c29.718,11.265,44.731,44.607,33.467,74.322
				c-11.265,29.718-44.607,44.731-74.325,33.465c-29.715-11.264-44.727-44.606-33.462-74.324
				C472.275,614.633,505.617,599.621,535.332,610.885z M496.647,712.939c26.557,10.067,56.352-3.349,66.419-29.906
				c10.066-26.554-3.35-56.349-29.907-66.416c-26.554-10.066-56.349,3.35-66.414,29.904
				C456.678,673.079,470.093,702.873,496.647,712.939z"/>
		</g>
		<g>
			
				<ellipse transform="matrix(0.1203 -0.9927 0.9927 0.1203 -252.1624 917.0997)" style="fill:#911C2D;" cx="391.39" cy="600.832" rx="48.155" ry="48.155"/>
			
				<linearGradient id="SVGID_00000056417881092351737850000013119755487774049168_" gradientUnits="userSpaceOnUse" x1="8894.248" y1="5884.207" x2="8996.6865" y2="5884.207" gradientTransform="matrix(-0.9351 -0.3545 0.3545 -0.9351 6670.3457 9274.3223)">
				<stop  offset="0" style="stop-color:#A57D24"/>
				<stop  offset="0.2112" style="stop-color:#D8BE62"/>
				<stop  offset="0.328" style="stop-color:#F1DD80"/>
				<stop  offset="0.524" style="stop-color:#FBF2A8"/>
				<stop  offset="0.7298" style="stop-color:#F1DD80"/>
				<stop  offset="1" style="stop-color:#A57D24"/>
			</linearGradient>
			<path style="fill:url(#SVGID_00000056417881092351737850000013119755487774049168_);" d="M409.544,552.936
				c26.411,10.012,39.753,39.642,29.742,66.05c-10.012,26.411-39.642,39.753-66.054,29.741
				c-26.408-10.01-39.75-39.641-29.738-66.052C353.506,556.267,383.136,542.926,409.544,552.936z M375.406,642.995
				c23.25,8.813,49.334-2.931,58.147-26.181c8.812-23.247-2.932-49.331-26.183-58.144c-23.247-8.812-49.331,2.932-58.143,26.179
				C340.415,608.099,352.159,634.182,375.406,642.995z"/>
		</g>
		<g>
			
				<ellipse transform="matrix(0.0511 -0.9987 0.9987 0.0511 -303.084 1072.1316)" style="fill:#911C2D;" cx="412.63" cy="695.553" rx="43.109" ry="43.109"/>
			
				<linearGradient id="SVGID_00000098938592575008542840000011026674456336670867_" gradientUnits="userSpaceOnUse" x1="8845.8594" y1="5803.1699" x2="8938.2061" y2="5803.1699" gradientTransform="matrix(-0.9351 -0.3545 0.3545 -0.9351 6670.3457 9274.3223)">
				<stop  offset="0" style="stop-color:#A57D24"/>
				<stop  offset="0.2112" style="stop-color:#D8BE62"/>
				<stop  offset="0.328" style="stop-color:#F1DD80"/>
				<stop  offset="0.524" style="stop-color:#FBF2A8"/>
				<stop  offset="0.7298" style="stop-color:#F1DD80"/>
				<stop  offset="1" style="stop-color:#A57D24"/>
			</linearGradient>
			<path style="fill:url(#SVGID_00000098938592575008542840000011026674456336670867_);" d="M428.996,652.375
				c23.81,9.025,35.836,35.734,26.81,59.544c-9.026,23.81-35.734,35.836-59.544,26.81c-23.81-9.025-35.836-35.734-26.81-59.544
				C378.478,655.376,405.187,643.35,428.996,652.375z M398.436,732.997c20.645,7.826,43.812-2.605,51.638-23.25
				c7.826-20.645-2.605-43.812-23.25-51.638c-20.645-7.826-43.812,2.605-51.638,23.25
				C367.359,702.004,377.79,725.171,398.436,732.997z"/>
		</g>
		<g>
			<g>
				<path style="fill:#4D7F64;" d="M260.707,385.725c10.933,17.268,25.334,40.409,21.524,61.741
					c-1.156,6.479-3.586,12.651-6.001,18.772c25.937-6.744,61.132-3.439,74.861,23.123c7.143,13.818,7.257,30.417,3.549,45.523
					c0.786-3.201,18.498-5.532,21.448-5.92c7.571-0.995,16.235-1.432,23.73,0.355c14.179,3.38,30.408,14.527,41.633,23.828
					c5.715,4.734,10.01,10.712,14.211,16.762c2.351,3.386,4.23,7.054,6.162,10.686c0.789,1.484,4.044,9.345,5.496,9.178
					c0.697-0.081,1.252-0.595,1.78-1.056c1.093-0.952,2.299-1.736,3.554-2.443c-13.721-47.636-118.407-187.161-118.407-187.161
					c72.225,43.989,114.953,156.361,124.739,184.503c1.162-0.351,2.339-0.656,3.515-0.924c0.269-0.061,0.567-0.139,0.718-0.371
					c0.24-0.37-0.041-0.847-0.312-1.194c-3.646-4.676-4.863-13.409-5.856-19.261c-1.889-11.136-1.698-22.456,0.683-33.504
					c3.77-17.491,9.336-34.936,19.648-49.559c4.561-6.468,10.101-12.304,16.459-17.031c4.654-3.458,19.222-6.875,21.935-10.663
					c0.576-0.804,0.778-1.52,0.692-2.164c-0.497-3.674-10.432-4.98-14.237-6.828c-6.745-3.276-12.963-7.601-18.494-12.657
					c-22.384-20.458-34.212-53.894-24.545-83.361c-27.871,1.278-56.256,0.335-82.884-7.999
					c-26.626-8.333-51.543-24.757-65.614-48.849c-3.517,23.599-24.332,42.032-47.357,48.291
					c-23.025,6.259-47.694,2.219-70.362-5.231C231.732,347.274,247.876,365.46,260.707,385.725z"/>
				
					<linearGradient id="SVGID_00000111875298352968249780000001930433891847398591_" gradientUnits="userSpaceOnUse" x1="8860.3135" y1="6040.1089" x2="9224.6426" y2="6040.1089" gradientTransform="matrix(-0.9351 -0.3545 0.3545 -0.9351 6670.3457 9274.3223)">
					<stop  offset="0" style="stop-color:#A57D24"/>
					<stop  offset="0.2112" style="stop-color:#D8BE62"/>
					<stop  offset="0.328" style="stop-color:#F1DD80"/>
					<stop  offset="0.524" style="stop-color:#FBF2A8"/>
					<stop  offset="0.7298" style="stop-color:#F1DD80"/>
					<stop  offset="1" style="stop-color:#A57D24"/>
				</linearGradient>
				<path style="fill:url(#SVGID_00000111875298352968249780000001930433891847398591_);" d="M328.946,280.179l4.394,7.522
					c12.674,21.685,35.388,38.582,63.885,47.469c22.387,7.006,47.623,9.432,81.827,7.864l4.438-0.203l-1.385,4.222
					c-8.826,26.91,0.697,59.114,23.701,80.141c5.484,5.009,11.461,9.103,17.765,12.159c0.969,0.481,2.723,0.987,4.43,1.486
					c5.347,1.565,10.897,3.192,11.505,7.689c0.194,1.475-0.22,2.938-1.231,4.356c-1.925,2.693-6.322,4.513-13.333,7.189
					c-3.724,1.424-7.57,2.892-9.272,4.155c-5.937,4.416-11.25,9.913-15.783,16.338c-8.566,12.15-14.653,27.54-19.155,48.435
					c-2.283,10.587-2.501,21.468-0.659,32.349l0.235,1.388c0.896,5.397,2.128,12.792,5.016,16.499
					c1.804,2.312,0.807,4.232,0.459,4.762c-0.817,1.277-2.163,1.58-2.605,1.678c-1.103,0.252-2.211,0.54-3.306,0.871l-2.816,0.848
					l-0.965-2.777c-35.228-101.304-81.588-150.553-107.888-171.793c27.74,37.905,96.264,133.947,107.395,172.594l0.671,2.325
					l-2.105,1.189c-1.265,0.721-2.235,1.383-3.054,2.094c-0.731,0.639-1.83,1.601-3.437,1.786c-3.192,0.38-4.985-3.128-7.877-9.35
					c-0.298-0.643-0.533-1.16-0.679-1.435l-0.619-1.162c-1.725-3.258-3.356-6.337-5.351-9.214
					c-4.336-6.239-8.36-11.763-13.652-16.146c-6.919-5.735-24.71-19.475-40.386-23.21c-5.955-1.417-13.354-1.515-22.621-0.296
					c-13.315,1.74-18.425,3.624-19.266,4.376c0.073-0.063,0.288-0.33,0.395-0.763l-5.956-1.466c0,0,0,0,0.001-0.003l0,0l0,0
					c3.972-16.181,2.801-31.587-3.293-43.376c-12.563-24.304-45.801-28.211-71.368-21.564l-5.837,1.516l2.214-5.612
					c2.324-5.892,4.73-11.987,5.837-18.185c3.651-20.467-10.653-43.065-21.098-59.563c-12.832-20.268-28.664-37.986-47.055-52.658
					l-13.326-10.635l16.195,5.325c26.709,8.777,49.148,10.472,68.602,5.183c23.879-6.489,42.013-24.885,45.13-45.782
					L328.946,280.179z M522.186,445.424c-0.463-0.176-0.897-0.359-1.294-0.551c-6.833-3.317-13.302-7.742-19.225-13.152
					c-23.573-21.546-33.949-54.134-26.619-82.379c-22.915,0.869-51.818,0.396-79.657-8.317
					c-27.168-8.515-49.41-23.984-63.335-43.955c-6.14,20.122-24.529,37.074-47.914,43.428c-17.157,4.664-36.346,4.262-58.34-1.263
					c14.331,13.087,26.908,28.125,37.496,44.848l0,0c10.364,16.372,26.025,41.113,21.952,63.922
					c-0.862,4.83-2.382,9.451-4.064,13.936c36.905-7.563,62.907,7.203,72.631,26.014c5.933,11.483,7.705,25.893,5.149,41.134
					c3.512-1.046,8.778-2.124,16.721-3.164c10.021-1.32,18.147-1.185,24.842,0.41c16.344,3.894,33.874,16.99,42.877,24.449
					c5.892,4.88,10.18,10.756,14.777,17.375c2.207,3.176,4.001,6.563,5.734,9.84l0.614,1.156c0.177,0.332,0.469,0.95,0.828,1.73
					c0.45,0.969,1.551,3.34,2.448,4.926c0.39-0.31,0.794-0.607,1.218-0.897c-15.875-48.554-116.204-182.592-117.233-183.963
					l-9.566-12.754l13.615,8.296c60.355,36.757,99.982,119.395,117.965,164.524c-1.732-11.2-1.421-22.397,0.931-33.306
					c4.681-21.728,11.081-37.833,20.138-50.678c4.908-6.956,10.675-12.921,17.137-17.725c2.381-1.766,6.44-3.317,10.74-4.962
					c3.528-1.347,9.407-3.593,10.495-4.975c-1.206-0.953-5.044-2.075-6.973-2.647C524.805,446.295,523.394,445.882,522.186,445.424z
					 M533.531,449.652c-0.011-0.012-0.018-0.022-0.026-0.032L533.531,449.652z M466.551,586.849L466.551,586.849L466.551,586.849z"
					/>
			</g>
			<g>
				<path style="fill:#4D7F64;" d="M693.936,429.816c-38.93,90.282-162.523,157.376-190.755,171.766
					c2.227,1.546,4.455,3.092,6.682,4.638c0.127,0.088,0.258,0.177,0.408,0.199c0.258,0.037,0.496-0.126,0.705-0.28
					c5.503-4.016,12.345-8.101,18.921-9.997c15.537-4.479,37.13,1.962,52.085,6.344c4.723,1.384,51.546,17.621,50.204,21.664
					c8.938-26.908,23.241-47.778,46.738-64.101c23.5-16.323,48.519-21.518,76.459-20.057c-20.669-17.49-36.619-39.055-35.954-67.48
					c1.114-47.74,27.949-77.52,73.052-89.19c-8.986-3.442-19.987-4.608-27.355-11.563c-26.09-24.627-19.871-53.834-15.651-86.142
					c-3.015,10.543-16.595,18.475-23.627,25.008c-11.498,10.682-17.801,19.474-32.666,24.956
					c-17.579,6.482-38.183,8.061-57.064,6.85c2.836,22.904,12.196,43.87-1.005,65.879c-13.202,22.009-40.908,26.629-64.206,33.357
					c7.512,21.672,10.056,50.278-10.306,65.07c-20.364,14.791-43.182,11.651-66.419,11.003
					c8.941,10.393,15.517,23.009,15.771,36.957c0.117,6.449-1.076,12.854-3.14,18.95c-1.256,3.706-2.478,8.425-4.409,11.784
					c-2.185,3.801-7.134,6.807-11.055,8.437c0.811-0.337,2.725,0.891,4.564,2.276c1.11-0.484,2.223-0.97,3.446-1.492
					C550.422,572.831,693.936,429.816,693.936,429.816z"/>
				
					<linearGradient id="SVGID_00000018948069877453363770000006509394175957958060_" gradientUnits="userSpaceOnUse" x1="8617.0879" y1="6112.313" x2="8886.3652" y2="6112.313" gradientTransform="matrix(-0.9351 -0.3545 0.3545 -0.9351 6670.3457 9274.3223)">
					<stop  offset="0" style="stop-color:#A57D24"/>
					<stop  offset="0.2112" style="stop-color:#D8BE62"/>
					<stop  offset="0.328" style="stop-color:#F1DD80"/>
					<stop  offset="0.524" style="stop-color:#FBF2A8"/>
					<stop  offset="0.7298" style="stop-color:#F1DD80"/>
					<stop  offset="1" style="stop-color:#A57D24"/>
				</linearGradient>
				<path style="fill:url(#SVGID_00000018948069877453363770000006509394175957958060_);" d="M752.514,286.012
					c-0.302,2.305-0.612,4.591-0.919,6.859c-4.001,29.44-7.456,54.865,15.637,76.657c4.655,4.399,11.321,6.328,17.77,8.19
					c2.855,0.828,5.771,1.665,8.576,2.743l8.951,3.431l-9.28,2.4c-45.245,11.708-69.71,41.545-70.754,86.294
					c-0.55,23.464,10.856,44.747,34.871,65.064l6.948,5.878l-9.091-0.474c-29.474-1.542-53.165,4.659-74.552,19.512
					c-21.992,15.283-36.477,35.157-45.577,62.55l0,0l-5.817-1.932c-0.311,0.931,0.012,1.735,0.219,1.98
					c-3.271-3.894-40.606-17.467-48.379-19.732l-0.565-0.169c-14.907-4.367-35.32-10.349-49.808-6.175
					c-6.699,1.932-13.465,6.249-17.963,9.526c-0.343,0.256-1.436,1.061-2.951,0.843c-0.897-0.139-1.519-0.576-1.746-0.737
					l-10.866-7.537l4.57-2.33c23.299-11.88,135.613-72.267,181.326-154.08c-36.679,35.799-140.037,134.531-182.551,152.699
					l-5.069,2.197l-1.432-1.077c-1.981-1.497-2.654-1.718-2.74-1.75c0.139,0.042,0.629,0.098,1.204-0.142l0,0l-2.358-5.664l0,0l0,0
					c3.478-1.445,7.82-4.081,9.575-7.133c1.305-2.273,2.291-5.385,3.243-8.394c0.312-0.983,0.617-1.947,0.92-2.846
					c2.083-6.146,3.084-12.172,2.98-17.909c-0.213-11.722-5.41-23.83-15.03-35.014l-4.522-5.258l6.934,0.194
					c2.877,0.08,5.747,0.199,8.611,0.315c20.016,0.826,38.927,1.604,55.919-10.736c22.032-16.006,13.78-48.398,9.209-61.586
					l-1.058-3.051l3.104-0.898c3.141-0.907,6.358-1.773,9.611-2.653c20.658-5.571,42.017-11.334,52.816-29.334
					c9.527-15.885,6.5-31.49,3.297-48.018c-1.001-5.15-2.033-10.477-2.704-15.907l-0.455-3.674l3.692,0.237
					c14.662,0.939,36.246,0.546,55.811-6.665c11.021-4.068,17.056-10.041,24.694-17.605c2.163-2.141,4.433-4.384,6.946-6.718
					c1.89-1.76,4.177-3.569,6.595-5.484c6.656-5.264,14.2-11.233,16.168-18.123L752.514,286.012z M774.516,380.811
					c-4.151-1.573-8.112-3.628-11.497-6.823c-23.496-22.176-21.963-47.962-18.39-75.326c-3.292,3.371-7.082,6.367-10.467,9.048
					c-2.32,1.835-4.511,3.571-6.227,5.162c-2.461,2.289-4.685,4.49-6.801,6.587c-7.846,7.766-14.618,14.474-26.893,19.002
					c-18.945,6.985-39.53,7.897-54.577,7.235c0.612,3.999,1.382,7.978,2.136,11.853c3.281,16.932,6.676,34.441-4.057,52.337
					c-12.072,20.122-35.666,26.488-56.481,32.102c-2.168,0.586-4.318,1.165-6.443,1.756c5.02,15.959,11.287,48.254-12.42,65.472
					c-18.714,13.595-39.588,12.735-59.776,11.901c-0.634-0.025-1.272-0.05-1.909-0.076c7.87,10.797,12.1,22.3,12.303,33.598
					c0.118,6.45-0.992,13.173-3.3,19.991c-0.294,0.865-0.586,1.785-0.883,2.728c-1.004,3.167-2.136,6.754-3.775,9.601
					c-0.491,0.855-1.074,1.656-1.718,2.404c53.906-27.975,187.045-160.339,188.431-161.718l11.293-11.256l-6.315,14.642
					c-37.631,87.269-154.458,153.52-187.64,170.937l1.229,0.852c4.902-3.465,11.746-7.617,18.707-9.623
					c16.198-4.672,37.602,1.602,53.228,6.181l0.566,0.165c0.405,0.12,35.643,11.603,47.982,19.191
					c9.606-26.44,24.421-45.969,46.35-61.204c20.462-14.212,42.85-20.922,69.898-20.837c-21.193-19.932-31.252-41.016-30.708-64.251
					c1.037-44.461,23.671-75.12,65.631-89.209C779.489,382.503,776.969,381.741,774.516,380.811z"/>
			</g>
		</g>
	</g>
</g>
</svg>
